#!OML:ASF I:\Actors\actors\Patient Classification 1\Patient 1\Session 1\Subject1.ASF
:FULLY-SPECIFIED
:DEGREES
1125
root 0.682202 17.5583 8.10902 14.3474 -5.94734 -7.9425
lowerback 4.27987 0.629164 9.53261
upperback -8.09792 2.12067 3.72195
thorax -11.0039 0.412354 -1.57571
lowerneck -13.8219 -1.10779 1.46224
upperneck 21.6502 -1.31035 -2.58083
head 9.03841 -0.781855 -1.28118
rclavicle 9.34288e-015 -1.74931e-014
rhumerus -6.47286 33.5931 -92.3618
rradius 75.6369
rwrist 44.5747
rhand -9.31514 -62.7829
rfingers 7.12502
rthumb 16.6431 -627.911
lclavicle 9.34288e-015 -1.74931e-014
lhumerus -18.1991 -18.143 95.5399
lradius 69.1515
lwrist -36.5439
lhand -35.9658 -10.5527
lfingers 7.12502
lthumb -9.07677 19.232
rfemur -11.7455 27.6017 18.658
rtibia 3.42121
rfoot -12.1072 -28.6991
rtoes 4.5084
lfemur -6.11881 -26.6045 -9.55184
ltibia -0.635882
lfoot -13.0424 41.2501
ltoes 4.69919
1126
root 0.696627 17.5595 8.11075 14.3043 -5.59799 -7.99625
lowerback 4.22546 0.790307 9.21054
upperback -8.15921 2.29436 3.58321
thorax -11.0199 0.514979 -1.57069
lowerneck -14.2252 -1.41208 0.6253
upperneck 21.8899 -1.79794 -1.4625
head 9.2071 -0.956392 -0.82324
rclavicle 8.00108e-015 -4.69132e-014
rhumerus -6.5314 33.7541 -92.4057
rradius 77.3484
rwrist 44.7969
rhand -9.39654 -63.5148
rfingers 7.12502
rthumb 16.5647 -627.172
lclavicle 8.00108e-015 -4.69132e-014
lhumerus -18.3524 -17.6493 94.9243
lradius 68.4588
lwrist -37.6737
lhand -37.8351 -12.5347
lfingers 7.12502
lthumb -10.8803 17.1635
rfemur -11.6775 27.3362 18.7578
rtibia 3.48773
rfoot -12.2114 -28.6988
rtoes 4.85994
lfemur -6.15118 -26.7294 -9.50512
ltibia -0.636638
lfoot -12.9346 41.0966
ltoes 4.55065
1127
root 0.711276 17.565 8.11596 14.3235 -5.28249 -7.71803
lowerback 4.0488 0.923572 8.52848
upperback -8.25958 2.37614 3.35977
thorax -11.0162 0.599378 -1.4443
lowerneck -14.5026 -1.51763 0.361753
upperneck 22.2442 -2.08059 -0.635146
head 9.39278 -1.01651 -0.535602
rclavicle 8.69683e-016 -4.45278e-014
rhumerus -6.6941 33.9909 -92.6466
rradius 78.7718
rwrist 45.3517
rhand -9.82169 -64.1849
rfingers 7.12502
rthumb 16.1553 -626.468
lclavicle 8.69683e-016 -4.45278e-014
lhumerus -18.4218 -17.2234 94.3712
lradius 67.953
lwrist -38.6751
lhand -38.9602 -13.8121
lfingers 7.12502
lthumb -11.9653 15.8259
rfemur -11.7607 27.1556 18.3412
rtibia 3.53637
rfoot -12.4109 -28.829
rtoes 5.47228
lfemur -6.33395 -27.2564 -9.78216
ltibia -0.563624
lfoot -13.1985 41.237
ltoes 5.10363
1128
root 0.726694 17.571 8.12039 14.3364 -4.98431 -7.43364
lowerback 3.94604 1.01437 7.84499
upperback -8.40545 2.41293 3.12148
thorax -11.1157 0.65731 -1.32706
lowerneck -14.5369 -1.6769 -0.0536092
upperneck 22.2623 -2.41493 0.25034
head 9.4223 -1.10735 -0.202737
rclavicle 8.62228e-015 -1.35174e-014
rhumerus -7.10035 34.3354 -93.1702
rradius 79.923
rwrist 45.9894
rhand -10.2609 -64.7788
rfingers 7.12502
rthumb 15.7324 -625.841
lclavicle 8.62228e-015 -1.35174e-014
lhumerus -18.4742 -16.8738 93.9254
lradius 67.6404
lwrist -38.8307
lhand -39.2487 -14.1351
lfingers 7.12502
lthumb -12.2435 15.4865
rfemur -11.8334 27.0063 17.9107
rtibia 3.57297
rfoot -12.6148 -28.9885
rtoes 6.02522
lfemur -6.49776 -27.8058 -10.0715
ltibia -0.515927
lfoot -13.2841 41.4375
ltoes 5.29412
1129
root 0.744028 17.5694 8.11897 14.1445 -4.69458 -7.89568
lowerback 4.22 1.11811 7.96842
upperback -8.47255 2.59627 3.04649
thorax -11.3396 0.722551 -1.50576
lowerneck -14.5863 -1.83035 -0.346049
upperneck 22.3516 -2.76297 1.08957
head 9.48194 -1.19853 0.0914176
rclavicle 3.33337e-014 4.77083e-015
rhumerus -7.56979 34.5962 -93.8251
rradius 80.7251
rwrist 46.6148
rhand -10.7061 -65.2147
rfingers 7.12502
rthumb 15.3036 -625.372
lclavicle 3.33337e-014 4.77083e-015
lhumerus -18.3879 -16.6835 93.5866
lradius 67.4061
lwrist -37.9992
lhand -39.3386 -14.8499
lfingers 7.12502
lthumb -12.3302 14.7665
rfemur -11.5076 26.743 18.5977
rtibia 3.59789
rfoot -12.6188 -28.859
rtoes 6.00237
lfemur -6.17499 -27.9736 -9.69444
ltibia -0.690975
lfoot -13.1412 41.47
ltoes 5.1355
1130
root 0.763235 17.5623 8.115 13.8726 -4.37963 -8.72091
lowerback 4.59502 1.22745 8.48554
upperback -8.48991 2.84783 3.08844
thorax -11.5599 0.792519 -1.78822
lowerneck -14.6922 -1.99463 -0.60475
upperneck 22.537 -3.11734 1.84014
head 9.58847 -1.29778 0.348045
rclavicle -6.03808e-015 -2.74323e-014
rhumerus -8.07921 34.6175 -94.5793
rradius 81.0335
rwrist 47.2167
rhand -11.4178 -65.5497
rfingers 7.12502
rthumb 14.618 -624.986
lclavicle -6.03808e-015 -2.74323e-014
lhumerus -18.1974 -16.5963 93.4031
lradius 67.2274
lwrist -37.2096
lhand -39.3963 -15.9371
lfingers 7.12502
lthumb -12.3857 13.676
rfemur -11.0324 26.3647 19.8037
rtibia 3.61566
rfoot -12.5066 -28.5838
rtoes 5.83459
lfemur -5.7014 -27.9513 -8.96642
ltibia -0.896207
lfoot -12.9474 41.3686
ltoes 5.04375
1131
root 0.781575 17.5567 8.11667 13.688 -4.03615 -9.17576
lowerback 4.72042 1.31046 8.61159
upperback -8.54551 2.9938 3.07795
thorax -11.6846 0.845539 -1.89231
lowerneck -14.7094 -2.15419 -0.759276
upperneck 22.751 -3.44253 2.3782
head 9.686 -1.39818 0.518724
rclavicle 2.03506e-014 -2.80286e-014
rhumerus -8.72647 34.3702 -95.4933
rradius 80.8607
rwrist 47.7706
rhand -12.1681 -65.6255
rfingers 7.12502
rthumb 13.895 -624.859
lclavicle 2.03506e-014 -2.80286e-014
lhumerus -18.0795 -16.637 93.3647
lradius 67.0707
lwrist -37.246
lhand -39.7019 -16.8615
lfingers 7.12502
lthumb -12.6804 12.7335
rfemur -10.6984 26.0998 20.4657
rtibia 3.58751
rfoot -12.5046 -28.5365
rtoes 6.02105
lfemur -5.43936 -28.2897 -8.59648
ltibia -0.985122
lfoot -12.8687 41.4978
ltoes 5.0753
1132
root 0.795276 17.5555 8.1227 13.5775 -3.74606 -9.26757
lowerback 4.6798 1.39357 8.30856
upperback -8.63305 3.06856 2.97976
thorax -11.7553 0.899321 -1.84134
lowerneck -14.6903 -2.30791 -0.81261
upperneck 22.9785 -3.76578 2.8258
head 9.78047 -1.49871 0.642021
rclavicle 2.5842e-015 2.32578e-014
rhumerus -9.51219 33.8532 -96.5149
rradius 80.349
rwrist 48.1474
rhand -13.085 -65.5023
rfingers 7.12502
rthumb 13.0113 -624.923
lclavicle 2.5842e-015 2.32578e-014
lhumerus -18.0119 -16.885 93.4016
lradius 66.9762
lwrist -37.794
lhand -40.1332 -17.6714
lfingers 7.12502
lthumb -13.0962 11.8974
rfemur -10.4568 26.0777 20.6302
rtibia 3.50274
rfoot -12.6129 -28.763
rtoes 6.25074
lfemur -5.28994 -28.7983 -8.58605
ltibia -1.07483
lfoot -12.8956 41.7578
ltoes 5.20014
1133
root 0.807075 17.5545 8.1307 13.4636 -3.48756 -9.35057
lowerback 4.5786 1.44274 7.94551
upperback -8.69849 3.08341 2.89632
thorax -11.7717 0.933295 -1.7311
lowerneck -14.6432 -2.46219 -1.00994
upperneck 23.0777 -4.07343 3.3649
head 9.83106 -1.59572 0.823942
rclavicle -1.26166e-014 -5.53615e-014
rhumerus -10.3811 33.1375 -97.6297
rradius 79.6648
rwrist 48.5166
rhand -14.2463 -65.58
rfingers 7.12502
rthumb 11.8916 -624.778
lclavicle -1.26166e-014 -5.53615e-014
lhumerus -17.9795 -17.2792 93.4592
lradius 66.959
lwrist -38.0013
lhand -40.517 -18.0054
lfingers 7.12502
lthumb -13.4661 11.5393
rfemur -10.154 26.1637 20.8178
rtibia 3.35691
rfoot -12.6615 -29.1185
rtoes 6.29189
lfemur -5.10531 -29.015 -8.58007
ltibia -1.21806
lfoot -12.7888 41.7399
ltoes 5.11209
